<svg xmlns="http://www.w3.org/2000/svg" xmlns:xlink="http://www.w3.org/1999/xlink" width="194" height="60" viewBox="0 0 194 60">
  <defs>
    <clipPath id="clip-path">
      <path id="Caminho_48" data-name="Caminho 48" d="M352.717,5326.9c.21-.253.421-.548.631-.76a4.377,4.377,0,0,1,5.306-.506,3.154,3.154,0,0,1,1.389,2.151,8.428,8.428,0,0,1,.169,2.068v8.607c0,.464-.127.549-.547.549a23.157,23.157,0,0,0-2.443,0c-.379,0-.464-.128-.464-.465v-8.27a5.224,5.224,0,0,0-.084-1.14,1.66,1.66,0,0,0-1.979-1.6,1.965,1.965,0,0,0-1.979,1.73,7.185,7.185,0,0,0-.084,1.646v7.593c0,.38-.127.508-.5.508-.843-.043-1.642,0-2.485,0-.294,0-.462-.085-.462-.422v-12.911c0-.337.125-.38.421-.38h1.684c.968,0,1.221.253,1.305,1.223C352.633,5326.648,352.59,5326.775,352.717,5326.9Z" transform="translate(-349.18 -5324.967)" fill="#fff"/>
    </clipPath>
    <clipPath id="clip-path-2">
      <rect id="Retângulo_59" data-name="Retângulo 59" width="150.201" height="37.55" fill="#fff"/>
    </clipPath>
    <clipPath id="clip-path-3">
      <path id="Caminho_50" data-name="Caminho 50" d="M329.753,5331.7v-4.853c0-.422-.126-.548-.5-.506a9.406,9.406,0,0,1-1.095,0c-.337,0-.379-.084-.294-.379.126-.507.252-1.056.337-1.562.041-.3.168-.337.421-.38.378,0,.884.169,1.095-.085.252-.294.084-.759.084-1.181v-1.562c0-.252.042-.379.337-.379.631.042,1.263,0,1.937,0,.758.042,1.053.338,1.053,1.1,0,.506.042,1.054,0,1.561-.042.422.084.548.5.548.715-.042,1.432,0,2.19,0,.294,0,.378.084.294.38-.126.506-.252.97-.337,1.476-.041.422-.252.465-.589.465-.506-.042-1.053,0-1.558,0-.294,0-.421.042-.421.379v8.4a1.419,1.419,0,0,0,1.684,1.476c.547-.042.674.126.633.634a8.552,8.552,0,0,0,0,1.476c0,.253-.085.38-.3.422a4.767,4.767,0,0,1-3.411-.126,3.333,3.333,0,0,1-2.021-2.955C329.669,5334.481,329.8,5332.919,329.753,5331.7Z" transform="translate(-327.821 -5320.811)" fill="#fff"/>
    </clipPath>
    <clipPath id="clip-path-5">
      <path id="Caminho_52" data-name="Caminho 52" d="M321.063,5331.147V5326.8c0-.338-.085-.507-.463-.464a10.9,10.9,0,0,1-1.179,0c-.337,0-.379-.126-.3-.379.127-.507.253-1.056.337-1.562.042-.3.169-.38.422-.337h.041c1.137-.043,1.137-.043,1.137-1.14v-1.688c0-.3.041-.422.378-.422.632.042,1.264,0,1.853,0,.716,0,1.053.3,1.095,1.055a11.748,11.748,0,0,1,0,1.73c0,.379.126.464.464.464.758-.043,1.474,0,2.232,0,.252,0,.337.084.294.337-.126.548-.253,1.1-.337,1.646-.042.253-.168.338-.421.338H324.9c-.3,0-.463.084-.463.422v8.142c0,1.266.59,1.772,1.81,1.73.379-.042.547.042.506.463a10.105,10.105,0,0,0,0,1.6.416.416,0,0,1-.337.463,4.885,4.885,0,0,1-3.2-.083,3.587,3.587,0,0,1-2.232-3.586C321.021,5334.017,321.063,5332.582,321.063,5331.147Z" transform="translate(-319.088 -5320.811)" fill="#fff"/>
    </clipPath>
    <clipPath id="clip-path-7">
      <path id="Caminho_54" data-name="Caminho 54" d="M370.718,5337.324c0,1.35,0,1.393-1.305,1.646-2.232.463-4.422.379-6.191-1.35a6.738,6.738,0,0,1-1.853-3.839,8.351,8.351,0,0,1,1.348-6.455,6.134,6.134,0,0,1,7.285-1.9c.5.211.8.464.716,1.1a4.791,4.791,0,0,0,0,1.351c0,.337-.043.379-.379.21a4.143,4.143,0,0,0-1.979-.465,3.2,3.2,0,0,0-3.2,2.575,7.6,7.6,0,0,0-.084,3.375c.506,2.49,2.274,3.291,4.717,2.659.884-.212.884-.253.884.675A1.571,1.571,0,0,1,370.718,5337.324Z" transform="translate(-361.225 -5324.961)" fill="#fff"/>
    </clipPath>
    <clipPath id="clip-path-9">
      <path id="Caminho_56" data-name="Caminho 56" d="M389.269,5329.97v-8.734c0-.379.084-.548.5-.506.674.042,1.348,0,2.021.042.59.043.843.339.884.93v16.833c0,.506-.084.675-.631.634a19.043,19.043,0,0,0-2.19,0c-.463.042-.631-.084-.631-.591C389.31,5335.708,389.269,5332.839,389.269,5329.97Z" transform="translate(-389.226 -5320.723)" fill="#fff"/>
    </clipPath>
    <clipPath id="clip-path-11">
      <path id="Caminho_58" data-name="Caminho 58" d="M375.58,5332.005v6.54c0,.422-.125.505-.5.505-.842-.041-1.642,0-2.484,0-.3,0-.463-.041-.463-.421v-12.615c0-.253.084-.38.337-.422.884-.168,1.769-.336,2.611-.548.379-.084.463,0,.463.38C375.58,5327.617,375.58,5329.812,375.58,5332.005Z" transform="translate(-372.127 -5325.014)" fill="#fff"/>
    </clipPath>
    <clipPath id="clip-path-13">
      <path id="Caminho_60" data-name="Caminho 60" d="M372.168,5322.8v-1.688c0-.253.084-.338.337-.338h2.19c.589,0,.883.338.926.929.043.675,0,1.393.043,2.067,0,.211-.085.3-.337.337-.927.169-1.811.38-2.7.592-.295.083-.421,0-.421-.339C372.209,5323.851,372.168,5323.3,372.168,5322.8Z" transform="translate(-372.168 -5320.77)" fill="#fff"/>
    </clipPath>
    <clipPath id="clip-path-15">
      <path id="Caminho_62" data-name="Caminho 62" d="M302.04,5328.663a2.5,2.5,0,0,1-2.316,1.687h-1.768c-.3,0-.379-.084-.337-.379v-5.822c0-.3.042-.422.378-.422.547.043,1.095,0,1.685,0a2.4,2.4,0,0,1,2.484,2.11A5.357,5.357,0,0,1,302.04,5328.663Zm3.706-4.853c-1.01-2.025-2.821-2.784-4.968-3-2.232-.211-4.464-.043-6.653-.127-.379,0-.506.083-.506.505v17.468c0,.422.126.507.506.507.758-.042,1.516,0,2.274,0,.926,0,1.221-.3,1.221-1.266,0-1.309.042-2.616,0-3.966,0-.465.125-.591.547-.548a3.68,3.68,0,0,0,.673,0,11.838,11.838,0,0,0,3.454-.338,5.3,5.3,0,0,0,4.043-4.641A8.236,8.236,0,0,0,305.746,5323.811Z" transform="translate(-293.618 -5320.688)" fill="#fff"/>
    </clipPath>
    <clipPath id="clip-path-17">
      <path id="Caminho_64" data-name="Caminho 64" d="M315.191,5335a2.06,2.06,0,0,1-2.147,1.645,2.006,2.006,0,0,1-2.063-1.476,10.38,10.38,0,0,1,.084-6.2,2.08,2.08,0,0,1,2.569-1.435,1.936,1.936,0,0,1,1.473,1.309,11.482,11.482,0,0,1,.084,6.16Zm3.875-4.684a5.969,5.969,0,0,0-11.749-.717,11.638,11.638,0,0,0-.168,4.514c.337,2.237,1.348,4.051,3.579,4.768a5.983,5.983,0,0,0,6.4-1.224,7.435,7.435,0,0,0,2.063-5.526A12.732,12.732,0,0,0,319.065,5330.318Z" transform="translate(-307.007 -5324.981)" fill="#fff"/>
    </clipPath>
    <clipPath id="clip-path-19">
      <path id="Caminho_66" data-name="Caminho 66" d="M344.464,5330.993h-4.043c-.21,0-.337-.042-.337-.294a3.836,3.836,0,0,1,.884-2.658,1.984,1.984,0,0,1,2.905,0,4.092,4.092,0,0,1,.927,2.658C344.8,5330.993,344.632,5330.993,344.464,5330.993Zm3.411-1.476c-.59-2.785-2.485-4.473-5.1-4.514a5.319,5.319,0,0,0-5.685,4.007,10.824,10.824,0,0,0-.337,5.19,5.846,5.846,0,0,0,2.737,4.092,8.065,8.065,0,0,0,5.137.844,6.6,6.6,0,0,0,2.359-.675c.21-.084.337-.169.337-.421v-1.857c0-.3-.085-.337-.337-.21a6.584,6.584,0,0,1-3.579.59,3.449,3.449,0,0,1-3.327-3c-.043-.379.043-.506.463-.506,1.179.043,2.358,0,3.537,0h3.58c.337,0,.462-.127.462-.464A12.674,12.674,0,0,0,347.875,5329.517Z" transform="translate(-336.59 -5324.999)" fill="#fff"/>
    </clipPath>
    <clipPath id="clip-path-21">
      <path id="Caminho_68" data-name="Caminho 68" d="M384.384,5333.864h0v.717a2.341,2.341,0,0,1-2.737,2.151,1.748,1.748,0,0,1-1.557-1.519,2.163,2.163,0,0,1,1.01-2.278,4.578,4.578,0,0,1,2.99-.379c.253.042.294.168.294.379Zm3.327-4.557a3.914,3.914,0,0,0-2.653-3.839,8.7,8.7,0,0,0-6.274.168c-.126.042-.3.084-.3.3v2.235a6.008,6.008,0,0,1,3.454-.759c1.81.169,2.442.843,2.4,2.658,0,.3-.043.423-.379.38a9.523,9.523,0,0,0-3.622.253c-2.19.591-3.916,2.194-3.706,4.894a3.689,3.689,0,0,0,3.791,3.628,4.609,4.609,0,0,0,4.127-1.941,3.855,3.855,0,0,0,.043.761c.084.675.294.928.968.97.589.041,1.221,0,1.81.041.253,0,.294-.083.294-.336C387.754,5335.551,387.795,5332.429,387.711,5329.307Z" transform="translate(-376.618 -5324.961)" fill="#fff"/>
    </clipPath>
    <clipPath id="clip-path-23">
      <path id="Caminho_90" data-name="Caminho 90" d="M257.411,5331.144c-.13-1.562-1.743-2.539-3.872-2.539H248.7V5320.6c9.1.651,8.842,10.547,8.842,10.547Zm-8.292-11.392v.064c9.349.063,9.159,10.246,9.159,10.246v24.694a4.464,4.464,0,0,0,.126,1.019,2.011,2.011,0,0,0,1.326,1.4,4.472,4.472,0,0,0,1.389.128h5.685v-30.677c0-4.52-3.916-6.874-9.474-6.874Zm29.058,11.392h.129c.13-1.562,1.743-2.539,3.873-2.539h4.841V5320.6C277.854,5321.248,278.177,5331.144,278.177,5331.144Zm.273-11.392c-5.623,0-9.539,2.354-9.539,6.874V5357.3H274.6a8,8,0,0,0,1.39-.128,1.236,1.236,0,0,0,.821-.509,1.829,1.829,0,0,0,.5-.891,4.977,4.977,0,0,0,.126-1.019V5330s-.19-10.183,9.159-10.247Z" transform="translate(-248.698 -5319.752)" fill="#fff"/>
    </clipPath>
  </defs>
  <g id="Grupo_7728" data-name="Grupo 7728" transform="translate(-39 -30)">
    <rect id="Retângulo_264" data-name="Retângulo 264" width="194" height="60" rx="6" transform="translate(39 30)" fill="#f26522"/>
    <g id="Grupo_300" data-name="Grupo 300" transform="translate(61.495 41.248)">
      <g id="Grupo_43" data-name="Grupo 43" transform="translate(104.182 13.828)">
        <path id="Caminho_47" data-name="Caminho 47" d="M352.717,5326.9c.21-.253.421-.548.631-.76a4.377,4.377,0,0,1,5.306-.506,3.154,3.154,0,0,1,1.389,2.151,8.428,8.428,0,0,1,.169,2.068v8.607c0,.464-.127.549-.547.549a23.157,23.157,0,0,0-2.443,0c-.379,0-.464-.128-.464-.465v-8.27a5.224,5.224,0,0,0-.084-1.14,1.66,1.66,0,0,0-1.979-1.6,1.965,1.965,0,0,0-1.979,1.73,7.185,7.185,0,0,0-.084,1.646v7.593c0,.38-.127.508-.5.508-.843-.043-1.642,0-2.485,0-.294,0-.462-.085-.462-.422v-12.911c0-.337.125-.38.421-.38h1.684c.968,0,1.221.253,1.305,1.223C352.633,5326.648,352.59,5326.775,352.717,5326.9Z" transform="translate(-349.18 -5324.967)" fill="#fff"/>
        <g id="Grupo_42" data-name="Grupo 42" clip-path="url(#clip-path)">
          <g id="Grupo_41" data-name="Grupo 41" transform="translate(-104.182 -5.407)">
            <rect id="Retângulo_57" data-name="Retângulo 57" width="150.201" height="37.55" fill="#fff"/>
            <g id="Grupo_40" data-name="Grupo 40" clip-path="url(#clip-path-2)">
              <rect id="Retângulo_58" data-name="Retângulo 58" width="18.129" height="21.128" transform="translate(100.639 1.865)" fill="#fff"/>
            </g>
          </g>
        </g>
      </g>
      <g id="Grupo_47" data-name="Grupo 47" transform="translate(82.036 9.518)">
        <path id="Caminho_49" data-name="Caminho 49" d="M329.753,5331.7v-4.853c0-.422-.126-.548-.5-.506a9.406,9.406,0,0,1-1.095,0c-.337,0-.379-.084-.294-.379.126-.507.252-1.056.337-1.562.041-.3.168-.337.421-.38.378,0,.884.169,1.095-.085.252-.294.084-.759.084-1.181v-1.562c0-.252.042-.379.337-.379.631.042,1.263,0,1.937,0,.758.042,1.053.338,1.053,1.1,0,.506.042,1.054,0,1.561-.042.422.084.548.5.548.715-.042,1.432,0,2.19,0,.294,0,.378.084.294.38-.126.506-.252.97-.337,1.476-.041.422-.252.465-.589.465-.506-.042-1.053,0-1.558,0-.294,0-.421.042-.421.379v8.4a1.419,1.419,0,0,0,1.684,1.476c.547-.042.674.126.633.634a8.552,8.552,0,0,0,0,1.476c0,.253-.085.38-.3.422a4.767,4.767,0,0,1-3.411-.126,3.333,3.333,0,0,1-2.021-2.955C329.669,5334.481,329.8,5332.919,329.753,5331.7Z" transform="translate(-327.821 -5320.811)" fill="#fff"/>
        <g id="Grupo_46" data-name="Grupo 46" clip-path="url(#clip-path-3)">
          <g id="Grupo_45" data-name="Grupo 45" transform="translate(-82.036 -1.097)">
            <rect id="Retângulo_60" data-name="Retângulo 60" width="150.201" height="37.55" fill="#fff"/>
            <g id="Grupo_44" data-name="Grupo 44" clip-path="url(#clip-path-2)">
              <rect id="Retângulo_61" data-name="Retângulo 61" width="15.407" height="25.65" transform="translate(78.494 -2.445)" fill="#fff"/>
            </g>
          </g>
        </g>
      </g>
      <g id="Grupo_51" data-name="Grupo 51" transform="translate(72.982 9.518)">
        <path id="Caminho_51" data-name="Caminho 51" d="M321.063,5331.147V5326.8c0-.338-.085-.507-.463-.464a10.9,10.9,0,0,1-1.179,0c-.337,0-.379-.126-.3-.379.127-.507.253-1.056.337-1.562.042-.3.169-.38.422-.337h.041c1.137-.043,1.137-.043,1.137-1.14v-1.688c0-.3.041-.422.378-.422.632.042,1.264,0,1.853,0,.716,0,1.053.3,1.095,1.055a11.748,11.748,0,0,1,0,1.73c0,.379.126.464.464.464.758-.043,1.474,0,2.232,0,.252,0,.337.084.294.337-.126.548-.253,1.1-.337,1.646-.042.253-.168.338-.421.338H324.9c-.3,0-.463.084-.463.422v8.142c0,1.266.59,1.772,1.81,1.73.379-.042.547.042.506.463a10.105,10.105,0,0,0,0,1.6.416.416,0,0,1-.337.463,4.885,4.885,0,0,1-3.2-.083,3.587,3.587,0,0,1-2.232-3.586C321.021,5334.017,321.063,5332.582,321.063,5331.147Z" transform="translate(-319.088 -5320.811)" fill="#fff"/>
        <g id="Grupo_50" data-name="Grupo 50" clip-path="url(#clip-path-5)">
          <g id="Grupo_49" data-name="Grupo 49" transform="translate(-72.982 -1.097)">
            <rect id="Retângulo_63" data-name="Retângulo 63" width="150.201" height="37.55" fill="#fff"/>
            <g id="Grupo_48" data-name="Grupo 48" clip-path="url(#clip-path-2)">
              <rect id="Retângulo_64" data-name="Retângulo 64" width="15.386" height="25.707" transform="translate(69.44 -2.445)" fill="#fff"/>
            </g>
          </g>
        </g>
      </g>
      <g id="Grupo_55" data-name="Grupo 55" transform="translate(116.67 13.822)">
        <path id="Caminho_53" data-name="Caminho 53" d="M370.718,5337.324c0,1.35,0,1.393-1.305,1.646-2.232.463-4.422.379-6.191-1.35a6.738,6.738,0,0,1-1.853-3.839,8.351,8.351,0,0,1,1.348-6.455,6.134,6.134,0,0,1,7.285-1.9c.5.211.8.464.716,1.1a4.791,4.791,0,0,0,0,1.351c0,.337-.043.379-.379.21a4.143,4.143,0,0,0-1.979-.465,3.2,3.2,0,0,0-3.2,2.575,7.6,7.6,0,0,0-.084,3.375c.506,2.49,2.274,3.291,4.717,2.659.884-.212.884-.253.884.675A1.571,1.571,0,0,1,370.718,5337.324Z" transform="translate(-361.225 -5324.961)" fill="#fff"/>
        <g id="Grupo_54" data-name="Grupo 54" clip-path="url(#clip-path-7)">
          <g id="Grupo_53" data-name="Grupo 53" transform="translate(-116.67 -5.401)">
            <rect id="Retângulo_66" data-name="Retângulo 66" width="150.201" height="37.55" fill="#fff"/>
            <g id="Grupo_52" data-name="Grupo 52" clip-path="url(#clip-path-2)">
              <rect id="Retângulo_67" data-name="Retângulo 67" width="16.593" height="21.334" transform="translate(113.127 1.858)" fill="#fff"/>
            </g>
          </g>
        </g>
      </g>
      <g id="Grupo_59" data-name="Grupo 59" transform="translate(145.702 9.427)">
        <path id="Caminho_55" data-name="Caminho 55" d="M389.269,5329.97v-8.734c0-.379.084-.548.5-.506.674.042,1.348,0,2.021.042.59.043.843.339.884.93v16.833c0,.506-.084.675-.631.634a19.043,19.043,0,0,0-2.19,0c-.463.042-.631-.084-.631-.591C389.31,5335.708,389.269,5332.839,389.269,5329.97Z" transform="translate(-389.226 -5320.723)" fill="#fff"/>
        <g id="Grupo_58" data-name="Grupo 58" clip-path="url(#clip-path-9)">
          <g id="Grupo_57" data-name="Grupo 57" transform="translate(-145.702 -1.006)">
            <rect id="Retângulo_69" data-name="Retângulo 69" width="150.201" height="37.55" fill="#fff"/>
            <g id="Grupo_56" data-name="Grupo 56" clip-path="url(#clip-path-2)">
              <rect id="Retângulo_70" data-name="Retângulo 70" width="10.538" height="25.536" transform="translate(142.16 -2.536)" fill="#fff"/>
            </g>
          </g>
        </g>
      </g>
      <g id="Grupo_63" data-name="Grupo 63" transform="translate(127.974 13.876)">
        <path id="Caminho_57" data-name="Caminho 57" d="M375.58,5332.005v6.54c0,.422-.125.505-.5.505-.842-.041-1.642,0-2.484,0-.3,0-.463-.041-.463-.421v-12.615c0-.253.084-.38.337-.422.884-.168,1.769-.336,2.611-.548.379-.084.463,0,.463.38C375.58,5327.617,375.58,5329.812,375.58,5332.005Z" transform="translate(-372.127 -5325.014)" fill="#fff"/>
        <g id="Grupo_62" data-name="Grupo 62" clip-path="url(#clip-path-11)">
          <g id="Grupo_61" data-name="Grupo 61" transform="translate(-127.974 -5.455)">
            <rect id="Retângulo_72" data-name="Retângulo 72" width="150.201" height="37.55" fill="#fff"/>
            <g id="Grupo_60" data-name="Grupo 60" clip-path="url(#clip-path-2)">
              <rect id="Retângulo_73" data-name="Retângulo 73" width="10.538" height="21.122" transform="translate(124.431 1.913)" fill="#fff"/>
            </g>
          </g>
        </g>
      </g>
      <g id="Grupo_67" data-name="Grupo 67" transform="translate(128.016 9.475)">
        <path id="Caminho_59" data-name="Caminho 59" d="M372.168,5322.8v-1.688c0-.253.084-.338.337-.338h2.19c.589,0,.883.338.926.929.043.675,0,1.393.043,2.067,0,.211-.085.3-.337.337-.927.169-1.811.38-2.7.592-.295.083-.421,0-.421-.339C372.209,5323.851,372.168,5323.3,372.168,5322.8Z" transform="translate(-372.168 -5320.77)" fill="#fff"/>
        <g id="Grupo_66" data-name="Grupo 66" clip-path="url(#clip-path-13)">
          <g id="Grupo_65" data-name="Grupo 65" transform="translate(-128.016 -1.055)">
            <rect id="Retângulo_75" data-name="Retângulo 75" width="150.201" height="37.55" fill="#fff"/>
            <g id="Grupo_64" data-name="Grupo 64" clip-path="url(#clip-path-2)">
              <rect id="Retângulo_76" data-name="Retângulo 76" width="10.58" height="11.039" transform="translate(124.473 -2.487)" fill="#fff"/>
            </g>
          </g>
        </g>
      </g>
      <g id="Grupo_71" data-name="Grupo 71" transform="translate(46.574 9.391)">
        <path id="Caminho_61" data-name="Caminho 61" d="M302.04,5328.663a2.5,2.5,0,0,1-2.316,1.687h-1.768c-.3,0-.379-.084-.337-.379v-5.822c0-.3.042-.422.378-.422.547.043,1.095,0,1.685,0a2.4,2.4,0,0,1,2.484,2.11A5.357,5.357,0,0,1,302.04,5328.663Zm3.706-4.853c-1.01-2.025-2.821-2.784-4.968-3-2.232-.211-4.464-.043-6.653-.127-.379,0-.506.083-.506.505v17.468c0,.422.126.507.506.507.758-.042,1.516,0,2.274,0,.926,0,1.221-.3,1.221-1.266,0-1.309.042-2.616,0-3.966,0-.465.125-.591.547-.548a3.68,3.68,0,0,0,.673,0,11.838,11.838,0,0,0,3.454-.338,5.3,5.3,0,0,0,4.043-4.641A8.236,8.236,0,0,0,305.746,5323.811Z" transform="translate(-293.618 -5320.688)" fill="#fff"/>
        <g id="Grupo_70" data-name="Grupo 70" clip-path="url(#clip-path-15)">
          <g id="Grupo_69" data-name="Grupo 69" transform="translate(-46.574 -0.971)">
            <rect id="Retângulo_78" data-name="Retângulo 78" width="150.201" height="37.55" fill="#fff"/>
            <g id="Grupo_68" data-name="Grupo 68" clip-path="url(#clip-path-2)">
              <rect id="Retângulo_79" data-name="Retângulo 79" width="19.885" height="25.565" transform="translate(43.032 -2.572)" fill="#fff"/>
            </g>
          </g>
        </g>
      </g>
      <g id="Grupo_75" data-name="Grupo 75" transform="translate(60.456 13.843)">
        <path id="Caminho_63" data-name="Caminho 63" d="M315.191,5335a2.06,2.06,0,0,1-2.147,1.645,2.006,2.006,0,0,1-2.063-1.476,10.38,10.38,0,0,1,.084-6.2,2.08,2.08,0,0,1,2.569-1.435,1.936,1.936,0,0,1,1.473,1.309,11.482,11.482,0,0,1,.084,6.16Zm3.875-4.684a5.969,5.969,0,0,0-11.749-.717,11.638,11.638,0,0,0-.168,4.514c.337,2.237,1.348,4.051,3.579,4.768a5.983,5.983,0,0,0,6.4-1.224,7.435,7.435,0,0,0,2.063-5.526A12.732,12.732,0,0,0,319.065,5330.318Z" transform="translate(-307.007 -5324.981)" fill="#fff"/>
        <g id="Grupo_74" data-name="Grupo 74" clip-path="url(#clip-path-17)">
          <g id="Grupo_73" data-name="Grupo 73" transform="translate(-60.456 -5.422)">
            <rect id="Retângulo_81" data-name="Retângulo 81" width="150.201" height="37.55" fill="#fff"/>
            <g id="Grupo_72" data-name="Grupo 72" clip-path="url(#clip-path-2)">
              <rect id="Retângulo_82" data-name="Retângulo 82" width="19.27" height="21.402" transform="translate(56.913 1.88)" fill="#fff"/>
            </g>
          </g>
        </g>
      </g>
      <g id="Grupo_79" data-name="Grupo 79" transform="translate(91.128 13.86)">
        <path id="Caminho_65" data-name="Caminho 65" d="M344.464,5330.993h-4.043c-.21,0-.337-.042-.337-.294a3.836,3.836,0,0,1,.884-2.658,1.984,1.984,0,0,1,2.905,0,4.092,4.092,0,0,1,.927,2.658C344.8,5330.993,344.632,5330.993,344.464,5330.993Zm3.411-1.476c-.59-2.785-2.485-4.473-5.1-4.514a5.319,5.319,0,0,0-5.685,4.007,10.824,10.824,0,0,0-.337,5.19,5.846,5.846,0,0,0,2.737,4.092,8.065,8.065,0,0,0,5.137.844,6.6,6.6,0,0,0,2.359-.675c.21-.084.337-.169.337-.421v-1.857c0-.3-.085-.337-.337-.21a6.584,6.584,0,0,1-3.579.59,3.449,3.449,0,0,1-3.327-3c-.043-.379.043-.506.463-.506,1.179.043,2.358,0,3.537,0h3.58c.337,0,.462-.127.462-.464A12.674,12.674,0,0,0,347.875,5329.517Z" transform="translate(-336.59 -5324.999)" fill="#fff"/>
        <g id="Grupo_78" data-name="Grupo 78" clip-path="url(#clip-path-19)">
          <g id="Grupo_77" data-name="Grupo 77" transform="translate(-91.128 -5.44)">
            <rect id="Retângulo_84" data-name="Retângulo 84" width="150.201" height="37.55" fill="#fff"/>
            <g id="Grupo_76" data-name="Grupo 76" clip-path="url(#clip-path-2)">
              <rect id="Retângulo_85" data-name="Retângulo 85" width="18.633" height="21.288" transform="translate(87.586 1.896)" fill="#fff"/>
            </g>
          </g>
        </g>
      </g>
      <g id="Grupo_83" data-name="Grupo 83" transform="translate(132.63 13.822)">
        <path id="Caminho_67" data-name="Caminho 67" d="M384.384,5333.864h0v.717a2.341,2.341,0,0,1-2.737,2.151,1.748,1.748,0,0,1-1.557-1.519,2.163,2.163,0,0,1,1.01-2.278,4.578,4.578,0,0,1,2.99-.379c.253.042.294.168.294.379Zm3.327-4.557a3.914,3.914,0,0,0-2.653-3.839,8.7,8.7,0,0,0-6.274.168c-.126.042-.3.084-.3.3v2.235a6.008,6.008,0,0,1,3.454-.759c1.81.169,2.442.843,2.4,2.658,0,.3-.043.423-.379.38a9.523,9.523,0,0,0-3.622.253c-2.19.591-3.916,2.194-3.706,4.894a3.689,3.689,0,0,0,3.791,3.628,4.609,4.609,0,0,0,4.127-1.941,3.855,3.855,0,0,0,.043.761c.084.675.294.928.968.97.589.041,1.221,0,1.81.041.253,0,.294-.083.294-.336C387.754,5335.551,387.795,5332.429,387.711,5329.307Z" transform="translate(-376.618 -5324.961)" fill="#fff"/>
        <g id="Grupo_82" data-name="Grupo 82" clip-path="url(#clip-path-21)">
          <g id="Grupo_81" data-name="Grupo 81" transform="translate(-132.63 -5.401)">
            <rect id="Retângulo_87" data-name="Retângulo 87" width="150.201" height="37.55" fill="#fff"/>
            <g id="Grupo_80" data-name="Grupo 80" clip-path="url(#clip-path-2)">
              <rect id="Retângulo_88" data-name="Retângulo 88" width="18.223" height="21.348" transform="translate(129.088 1.858)" fill="#fff"/>
            </g>
          </g>
        </g>
      </g>
      <g id="Grupo_127" data-name="Grupo 127" transform="translate(0 0)">
        <path id="Caminho_89" data-name="Caminho 89" d="M257.411,5331.144c-.13-1.562-1.743-2.539-3.872-2.539H248.7V5320.6c9.1.651,8.842,10.547,8.842,10.547Zm-8.292-11.392v.064c9.349.063,9.159,10.246,9.159,10.246v24.694a4.464,4.464,0,0,0,.126,1.019,2.011,2.011,0,0,0,1.326,1.4,4.472,4.472,0,0,0,1.389.128h5.685v-30.677c0-4.52-3.916-6.874-9.474-6.874Zm29.058,11.392h.129c.13-1.562,1.743-2.539,3.873-2.539h4.841V5320.6C277.854,5321.248,278.177,5331.144,278.177,5331.144Zm.273-11.392c-5.623,0-9.539,2.354-9.539,6.874V5357.3H274.6a8,8,0,0,0,1.39-.128,1.236,1.236,0,0,0,.821-.509,1.829,1.829,0,0,0,.5-.891,4.977,4.977,0,0,0,.126-1.019V5330s-.19-10.183,9.159-10.247Z" transform="translate(-248.698 -5319.752)" fill="#fff"/>
        <g id="Grupo_126" data-name="Grupo 126" clip-path="url(#clip-path-23)">
          <g id="Grupo_125" data-name="Grupo 125" transform="translate(0)">
            <rect id="Retângulo_120" data-name="Retângulo 120" width="150.201" height="37.55" fill="#fff"/>
            <g id="Grupo_124" data-name="Grupo 124" clip-path="url(#clip-path-2)">
              <rect id="Retângulo_121" data-name="Retângulo 121" width="45.405" height="44.635" transform="translate(-3.542 -3.542)" fill="#fff"/>
            </g>
          </g>
        </g>
      </g>
    </g>
  </g>
</svg>
